<svg width="47" height="47" viewBox="0 0 47 47" fill="none" xmlns="http://www.w3.org/2000/svg">
<mask id="mask0_20_102" style="mask-type:luminance" maskUnits="userSpaceOnUse" x="0" y="0" width="47" height="47">
<path d="M23.3456 4.20584C29.5793 4.20584 30.3176 4.22919 32.7795 4.34163C35.056 4.44548 36.2921 4.82538 37.1146 5.14533C38.2048 5.56913 38.9822 6.07436 39.7992 6.89132C40.616 7.70828 41.1223 8.48584 41.5452 9.57587C41.8651 10.3984 42.245 11.6345 42.3489 13.911C42.4611 16.3729 42.4847 17.111 42.4847 23.3449C42.4847 29.5787 42.4613 30.3167 42.3489 32.7786C42.245 35.055 41.8651 36.2911 41.5452 37.1137C41.1214 38.2039 40.6161 38.9813 39.7992 39.7982C38.9822 40.615 38.2047 41.1214 37.1146 41.5442C36.2921 41.8642 35.056 42.2441 32.7795 42.3479C30.3178 42.4602 29.5795 42.4837 23.3456 42.4837C17.1118 42.4837 16.3738 42.4604 13.9119 42.3479C11.6355 42.2441 10.3994 41.8642 9.5768 41.5442C8.48658 41.1202 7.70922 40.615 6.89226 39.7982C6.07548 38.9813 5.56913 38.2037 5.14626 37.1137C4.82613 36.2911 4.44641 35.055 4.34256 32.7786C4.23031 30.3169 4.20678 29.5786 4.20678 23.3449C4.20678 17.1112 4.23012 16.3731 4.34256 13.911C4.44641 11.6345 4.82632 10.3984 5.14626 9.57587C5.57006 8.48565 6.07529 7.70828 6.89226 6.89132C7.70922 6.07455 8.48677 5.56819 9.5768 5.14533C10.3994 4.82538 11.6355 4.44548 13.9119 4.34163C16.3736 4.23031 17.1119 4.20584 23.3456 4.20584ZM23.3456 0C17.0053 0 16.21 0.0270827 13.7201 0.140269C11.2348 0.253456 9.53832 0.64849 8.05345 1.22563C6.51795 1.82257 5.21649 2.62085 3.91858 3.91858C2.62085 5.21649 1.82182 6.51795 1.22563 8.05345C0.648303 9.53851 0.253456 11.2358 0.140269 13.7201C0.0270827 16.2102 0 17.0055 0 23.3456C0 29.6858 0.0270827 30.4812 0.140269 32.9712C0.253456 35.4564 0.64849 37.1529 1.22563 38.6378C1.82257 40.1733 2.62085 41.4748 3.91858 42.7727C5.21649 44.0706 6.51889 44.8687 8.05345 45.4656C9.53851 46.0429 11.2358 46.4378 13.7201 46.551C16.21 46.6642 17.0053 46.6912 23.3456 46.6912C29.686 46.6912 30.4812 46.6642 32.9712 46.551C35.4564 46.4378 37.1529 46.0428 38.6378 45.4656C40.1733 44.8685 41.4748 44.0704 42.7727 42.7727C44.0706 41.4748 44.8687 40.1724 45.4656 38.6378C46.0429 37.1529 46.4378 35.4555 46.551 32.9712C46.6642 30.4812 46.6912 29.686 46.6912 23.3456C46.6912 17.0053 46.6642 16.21 46.551 13.7201C46.4378 11.2348 46.0428 9.53832 45.4656 8.05345C44.8685 6.51795 44.0704 5.21649 42.7727 3.91858C41.4748 2.62085 40.1724 1.82257 38.6378 1.22563C37.1529 0.648303 35.4555 0.253456 32.9712 0.140269C30.4814 0.0270827 29.686 0 23.3456 0ZM23.3456 11.3575C16.7246 11.3575 11.3575 16.7246 11.3575 23.3456C11.3575 29.9667 16.7246 35.3339 23.3456 35.3339C29.9667 35.3339 35.3339 29.9667 35.3339 23.3456C35.3339 16.7246 29.9667 11.3575 23.3456 11.3575ZM23.3456 31.1281C19.0481 31.1281 15.5634 27.6445 15.5634 23.3458C15.5634 19.0471 19.0481 15.5636 23.3456 15.5636C27.6432 15.5636 31.1279 19.0471 31.1279 23.3458C31.1279 27.6445 27.6432 31.1281 23.3456 31.1281ZM35.8074 8.08258C34.2597 8.08258 33.0059 9.33642 33.0059 10.8841C33.0059 12.4317 34.2597 13.6857 35.8074 13.6857C37.355 13.6857 38.609 12.4317 38.609 10.8841C38.609 9.33642 37.3552 8.08258 35.8074 8.08258Z" fill="white"/>
</mask>
<g mask="url(#mask0_20_102)">
<rect x="-13.1357" y="-13.1353" width="72.843" height="72.843" fill="white"/>
</g>
</svg>
